<?xml version="1.0" encoding="utf-8"?>
<svg width="220px" height="220px" viewBox="0 0 220 220" version="1.1" xmlns:xlink="http://www.w3.org/1999/xlink" xmlns="http://www.w3.org/2000/svg">
  <g id="Group">
    <path d="M110 0C129.056 0 144.5 15.4436 144.5 34.5L144.5 185.5C144.5 204.556 129.056 220 110 220L110 220C90.9436 220 75.5 204.556 75.5 185.5L75.5 34.5C75.5 15.4436 90.9436 0 110 0Z" id="Rectangle" fill="#FB6F92" stroke="none" />
    <path d="M220 110C220 129.056 204.556 144.5 185.5 144.5L34.5 144.5C15.4436 144.5 0 129.056 0 110L0 110C0 90.9436 15.4436 75.5 34.5 75.5L185.5 75.5C204.556 75.5 220 90.9436 220 110Z" id="Rectangle-2" fill="#FB6F92" stroke="none" />
    <path d="M187.282 188.282C173.807 201.757 151.966 201.757 138.491 188.282L31.7183 81.5087C18.2433 68.0337 18.2433 46.1932 31.7183 32.7183L31.7183 32.7183C45.1932 19.2434 67.0337 19.2434 80.5086 32.7183L187.282 139.491C200.757 152.966 200.757 174.807 187.282 188.282Z" id="Rectangle-3" fill="#FB6F92" stroke="none" />
    <path d="M31.5413 188.395C18.0664 174.92 18.0664 153.08 31.5413 139.605L138.314 32.8317C151.789 19.3568 173.63 19.3568 187.105 32.8317L187.105 32.8317C200.58 46.3066 200.58 68.1472 187.105 81.6221L80.3316 188.395C66.8567 201.87 45.0162 201.87 31.5413 188.395Z" id="Rectangle-4" fill="#FB6F92" stroke="none" />
  </g>
  <path d="M49.5 110C49.5 76.8629 76.3629 50 109.5 50C142.637 50 169.5 76.8629 169.5 110C169.5 143.137 142.637 170 109.5 170C76.3629 170 49.5 143.137 49.5 110Z" id="Oval-2" fill="#FFB3C6" fill-rule="evenodd" stroke="none" />
</svg>