<?xml version="1.0" encoding="utf-8"?>
<svg width="759.5px" height="220px" viewBox="0 0 759.5 220" version="1.1" xmlns:xlink="http://www.w3.org/1999/xlink" xmlns="http://www.w3.org/2000/svg">
  <defs>
    <path d="M0 0L480 0L480 167L0 167L0 0Z" id="path_1" />
    <clipPath id="clip_1">
      <use xlink:href="#path_1" />
    </clipPath>
  </defs>
  <g id="bloom">
    <g id="Group">
      <path d="M110 0C129.056 0 144.5 15.4436 144.5 34.5L144.5 185.5C144.5 204.556 129.056 220 110 220L110 220C90.9436 220 75.5 204.556 75.5 185.5L75.5 34.5C75.5 15.4436 90.9436 0 110 0Z" id="Rectangle" fill="#FB6F92" stroke="none" />
      <path d="M220 110C220 129.056 204.556 144.5 185.5 144.5L34.5 144.5C15.4436 144.5 0 129.056 0 110L0 110C0 90.9436 15.4436 75.5 34.5 75.5L185.5 75.5C204.556 75.5 220 90.9436 220 110Z" id="Rectangle-2" fill="#FB6F92" stroke="none" />
      <path d="M187.282 188.282C173.807 201.757 151.966 201.757 138.491 188.282L31.7183 81.5086C18.2434 68.0337 18.2434 46.1932 31.7183 32.7183L31.7183 32.7183C45.1932 19.2433 67.0337 19.2434 80.5087 32.7183L187.282 139.491C200.757 152.966 200.757 174.807 187.282 188.282Z" id="Rectangle-3" fill="#FB6F92" stroke="none" />
      <path d="M31.5413 188.395C18.0664 174.92 18.0664 153.08 31.5413 139.605L138.314 32.8317C151.789 19.3568 173.63 19.3568 187.105 32.8317L187.105 32.8317C200.58 46.3066 200.58 68.1472 187.105 81.6221L80.3317 188.395C66.8567 201.87 45.0162 201.87 31.5413 188.395Z" id="Rectangle-4" fill="#FB6F92" stroke="none" />
    </g>
    <path d="M49.5 110C49.5 76.8629 76.3629 50 109.5 50C142.637 50 169.5 76.8629 169.5 110C169.5 143.137 142.637 170 109.5 170C76.3629 170 49.5 143.137 49.5 110Z" id="Oval-2" fill="#FFB3C6" fill-rule="evenodd" stroke="none" />
    <g id="bloom" clip-path="url(#clip_1)" transform="translate(279.5 27)">
      <g id="bloom" fill="#EFEFEF">
        <path d="M51.696 144.576Q43.632 144.576 37.584 141.552Q31.536 138.528 27.792 133.056L25.776 142.848L9.36 142.848L9.36 39.168L27.792 39.168L27.792 81.648Q31.248 76.896 36.936 73.296Q42.624 69.696 51.696 69.696Q61.776 69.696 69.696 74.592Q77.616 79.488 82.224 87.984Q86.832 96.48 86.832 107.28Q86.832 118.08 82.224 126.504Q77.616 134.928 69.696 139.752Q61.776 144.576 51.696 144.576ZM47.808 128.448Q56.592 128.448 62.352 122.544Q68.112 116.64 68.112 107.28Q68.112 97.92 62.352 91.872Q56.592 85.824 47.808 85.824Q38.88 85.824 33.192 91.8Q27.504 97.776 27.504 107.136Q27.504 116.496 33.192 122.472Q38.88 128.448 47.808 128.448ZM103.248 142.848L103.248 39.168L121.68 39.168L121.68 142.848L103.248 142.848ZM174.816 144.576Q164.448 144.576 156.168 139.824Q147.888 135.072 143.064 126.648Q138.24 118.224 138.24 107.136Q138.24 96.048 143.136 87.624Q148.032 79.2 156.312 74.448Q164.592 69.696 174.96 69.696Q185.184 69.696 193.464 74.448Q201.744 79.2 206.568 87.624Q211.392 96.048 211.392 107.136Q211.392 118.224 206.568 126.648Q201.744 135.072 193.392 139.824Q185.04 144.576 174.816 144.576ZM174.816 128.592Q182.016 128.592 187.344 123.192Q192.672 117.792 192.672 107.136Q192.672 96.48 187.344 91.08Q182.016 85.68 174.96 85.68Q167.616 85.68 162.36 91.08Q157.104 96.48 157.104 107.136Q157.104 117.792 162.36 123.192Q167.616 128.592 174.816 128.592ZM262.08 144.576Q251.712 144.576 243.432 139.824Q235.152 135.072 230.328 126.648Q225.504 118.224 225.504 107.136Q225.504 96.048 230.4 87.624Q235.296 79.2 243.576 74.448Q251.856 69.696 262.224 69.696Q272.448 69.696 280.728 74.448Q289.008 79.2 293.832 87.624Q298.656 96.048 298.656 107.136Q298.656 118.224 293.832 126.648Q289.008 135.072 280.656 139.824Q272.304 144.576 262.08 144.576ZM262.08 128.592Q269.28 128.592 274.608 123.192Q279.936 117.792 279.936 107.136Q279.936 96.48 274.608 91.08Q269.28 85.68 262.224 85.68Q254.88 85.68 249.624 91.08Q244.368 96.48 244.368 107.136Q244.368 117.792 249.624 123.192Q254.88 128.592 262.08 128.592ZM315.072 142.848L315.072 71.424L331.344 71.424L332.928 81.072Q336.384 75.888 342.072 72.792Q347.76 69.696 355.248 69.696Q371.808 69.696 378.72 82.512Q382.608 76.608 389.16 73.152Q395.712 69.696 403.488 69.696Q417.456 69.696 424.944 78.048Q432.432 86.4 432.432 102.528L432.432 142.848L414 142.848L414 104.256Q414 95.04 410.472 90.144Q406.944 85.248 399.6 85.248Q392.112 85.248 387.576 90.72Q383.04 96.192 383.04 105.984L383.04 142.848L364.608 142.848L364.608 104.256Q364.608 95.04 361.008 90.144Q357.408 85.248 349.92 85.248Q342.576 85.248 338.04 90.72Q333.504 96.192 333.504 105.984L333.504 142.848L315.072 142.848Z" />
      </g>
    </g>
  </g>
</svg>